# xmcd CD database file
#
# Track frame offsets:
#	150
#	32024
#	63428
#	83723
#	102029
#	135608
#	156479
#	172675
#	193411
#	223549
#	245333
#
# Disc length: 3562 seconds
#
# Revision: 0
# Processed by: cddbd v1.5.1PL0 Copyright (c) Steve Scherf et al.
# Submitted via: CDex 1.51
#
DISCID=900de80b
DTITLE=Marco Sanguinetti - Improvisaciones
DYEAR=2005
DGENRE=Jazz
TTITLE0=Documental
TTITLE1=Caravana perdida
TTITLE2=Wandering toad
TTITLE3=La muerte del angel
TTITLE4=Visiones
TTITLE5=Canción de cuna para una mujer sin pesadillas
TTITLE6=Chemical I
TTITLE7=Chemical II
TTITLE8=Chemical III
TTITLE9=Roxanne
TTITLE10=Retorno del verano triste
EXTD=YEAR: 2005
EXTT0=
EXTT1=
EXTT2=
EXTT3=
EXTT4=
EXTT5=
EXTT6=
EXTT7=
EXTT8=
EXTT9=
EXTT10=
PLAYORDER=
